<?xml version="1.0" encoding="UTF-8"?>
<svg   viewBox="0 0 42 72" version="1.1" xmlns="http://www.w3.org/2000/svg" xmlns:xlink="http://www.w3.org/1999/xlink">
    <!-- Generator: Sketch 51.3 (57544) - http://www.bohemiancoding.com/sketch -->
    <title>hand-empty</title>
    <desc>Created with Sketch.</desc>
    <defs></defs>
    <g id="hand-empty"   fill-rule="evenodd">
        <g id="noun_hello_193166" transform="translate(3.000000, 3.000000)"  fill-rule="nonzero">
            <path d="M13.237,57.929 L7.955,57.929 C7.806,57.929 7.662,57.872 7.552,57.77 C-3.791,47.215 1.529,31.312 1.584,31.153 C1.69,30.845 2.027,30.682 2.336,30.787 C2.644,30.894 2.809,31.23 2.702,31.539 C2.65,31.69 -2.362,46.721 8.189,56.745 L13.236,56.745 C13.562,56.745 13.827,57.01 13.827,57.337 C13.827,57.664 13.563,57.929 13.237,57.929 Z" id="Shape"></path>
            <path d="M26.158,36.058 C25.831,36.058 25.567,35.793 25.567,35.466 L25.567,6.814 C25.567,6.487 25.832,6.222 26.158,6.222 C26.484,6.222 26.749,6.487 26.749,6.814 L26.749,35.466 C26.75,35.793 26.485,36.058 26.158,36.058 Z" id="Shape"></path>
            <path d="M26.158,69 C25.831,69 25.567,68.735 25.567,68.409 L25.567,46.457 C25.567,46.13 25.832,45.865 26.158,45.865 C26.484,45.865 26.749,46.13 26.749,46.457 L26.749,68.409 C26.75,68.735 26.485,69 26.158,69 Z" id="Shape"></path>
            <path d="M7.956,69 C7.629,69 7.365,68.735 7.365,68.409 L7.365,57.337 C7.365,57.01 7.63,56.745 7.956,56.745 C8.282,56.745 8.547,57.01 8.547,57.337 L8.547,68.409 C8.547,68.735 8.282,69 7.956,69 Z" id="Shape"></path>
            <path d="M10.927,60.333 L7.956,60.333 C7.629,60.333 7.365,60.068 7.365,59.742 C7.365,59.415 7.63,59.15 7.956,59.15 L10.927,59.15 C11.254,59.15 11.519,59.415 11.519,59.742 C11.519,60.068 11.254,60.333 10.927,60.333 Z" id="Shape"></path>
            <path d="M23.939,56.86 C23.718,56.86 23.506,56.736 23.405,56.524 C23.264,56.229 23.389,55.876 23.684,55.735 C27.716,53.808 27.926,52.686 27.894,52.388 C27.827,51.763 26.58,51.261 26.021,51.128 C25.703,51.053 25.506,50.733 25.582,50.416 C25.658,50.099 25.977,49.903 26.294,49.978 C26.56,50.041 28.897,50.643 29.069,52.263 C29.222,53.697 27.672,55.139 24.193,56.803 C24.111,56.842 24.024,56.86 23.939,56.86 Z" id="Shape"></path>
            <path d="M23.939,61.278 C23.718,61.278 23.506,61.154 23.405,60.942 C23.264,60.647 23.389,60.294 23.684,60.153 C27.715,58.226 27.926,57.105 27.894,56.807 C27.828,56.18 26.603,55.686 26.02,55.546 C25.703,55.47 25.507,55.15 25.583,54.833 C25.659,54.516 25.977,54.319 26.294,54.396 C26.56,54.458 28.897,55.06 29.069,56.681 C29.222,58.115 27.672,59.557 24.193,61.221 C24.111,61.26 24.024,61.278 23.939,61.278 Z" id="Shape"></path>
            <path d="M23.939,65.917 C23.718,65.917 23.506,65.793 23.405,65.58 C23.264,65.286 23.389,64.933 23.684,64.791 C27.716,62.864 27.926,61.743 27.894,61.445 C27.827,60.819 26.58,60.318 26.021,60.185 C25.703,60.11 25.506,59.791 25.582,59.474 C25.658,59.156 25.977,58.96 26.294,59.035 C26.56,59.098 28.897,59.699 29.069,61.32 C29.222,62.753 27.672,64.195 24.193,65.859 C24.111,65.898 24.024,65.917 23.939,65.917 Z" id="Shape"></path>
            <path d="M14.151,4.314 C13.825,4.314 13.56,4.049 13.559,3.723 C13.557,1.742 15.166,0.127 17.148,0.124 C17.149,0.124 17.151,0.124 17.152,0.124 C18.11,0.124 19.011,0.497 19.69,1.174 C20.37,1.852 20.744,2.754 20.745,3.714 C20.745,4.041 20.481,4.306 20.155,4.306 C20.155,4.306 20.155,4.306 20.154,4.306 C19.828,4.306 19.563,4.042 19.563,3.715 C19.563,3.071 19.311,2.466 18.855,2.011 C18.4,1.557 17.795,1.307 17.153,1.307 C17.152,1.307 17.152,1.307 17.15,1.307 C15.821,1.308 14.741,2.391 14.743,3.721 C14.743,4.048 14.479,4.313 14.151,4.314 Z" id="Shape"></path>
            <path d="M20.155,7.413 C19.829,7.413 19.564,7.148 19.564,6.822 C19.561,4.841 21.171,3.226 23.153,3.223 C23.154,3.223 23.156,3.223 23.156,3.223 C24.115,3.223 25.016,3.596 25.695,4.273 C26.375,4.951 26.749,5.853 26.75,6.813 C26.75,7.14 26.486,7.405 26.16,7.405 C25.833,7.405 25.569,7.141 25.568,6.814 C25.568,6.17 25.316,5.565 24.86,5.11 C24.405,4.656 23.8,4.406 23.157,4.406 C23.157,4.406 23.156,4.406 23.155,4.406 C21.825,4.407 20.746,5.49 20.747,6.82 C20.747,7.147 20.482,7.412 20.155,7.413 C20.156,7.413 20.155,7.413 20.155,7.413 Z" id="Shape"></path>
            <path d="M8.147,8.575 C7.821,8.575 7.556,8.31 7.556,7.984 C7.553,6.003 9.163,4.388 11.144,4.385 C11.145,4.385 11.147,4.385 11.148,4.385 C12.106,4.385 13.007,4.758 13.686,5.435 C14.366,6.113 14.741,7.015 14.742,7.975 C14.742,8.302 14.478,8.567 14.151,8.567 C13.824,8.567 13.56,8.302 13.559,7.976 C13.559,7.332 13.307,6.727 12.851,6.272 C12.396,5.818 11.791,5.568 11.148,5.568 C11.147,5.568 11.147,5.568 11.146,5.568 C9.817,5.569 8.737,6.652 8.739,7.982 C8.74,8.309 8.475,8.574 8.147,8.575 Z" id="Shape"></path>
            <path d="M2.144,16.51 C1.818,16.51 1.553,16.245 1.553,15.919 C1.55,13.938 3.16,12.324 5.141,12.321 C5.142,12.321 5.144,12.321 5.145,12.321 C6.103,12.321 7.004,12.694 7.683,13.37 C8.363,14.048 8.738,14.95 8.739,15.91 C8.739,16.237 8.475,16.502 8.148,16.502 C8.148,16.502 8.148,16.502 8.148,16.502 C7.821,16.502 7.557,16.237 7.556,15.911 C7.556,15.267 7.304,14.661 6.848,14.207 C6.392,13.752 5.788,13.503 5.145,13.503 C5.144,13.503 5.143,13.503 5.142,13.503 C3.813,13.504 2.733,14.587 2.735,15.917 C2.736,16.244 2.471,16.51 2.144,16.51 Z" id="Shape"></path>
            <path d="M23.405,12.348 C23.405,12.348 23.405,12.348 23.405,12.348 L20.273,12.342 C19.946,12.341 19.682,12.076 19.683,11.749 C19.683,11.423 19.948,11.159 20.274,11.159 C20.275,11.159 20.275,11.159 20.275,11.159 L23.405,11.165 C23.732,11.165 23.996,11.431 23.995,11.757 C23.996,12.083 23.731,12.348 23.405,12.348 Z" id="Shape"></path>
            <path d="M22.664,14.18 C22.663,14.18 22.663,14.18 22.664,14.18 L20.191,14.176 C19.864,14.176 19.6,13.91 19.601,13.583 C19.601,13.257 19.866,12.993 20.192,12.993 C20.192,12.993 20.193,12.993 20.193,12.993 L22.665,12.997 C22.992,12.998 23.256,13.263 23.256,13.59 C23.255,13.915 22.99,14.18 22.664,14.18 Z" id="Shape"></path>
            <path d="M31.113,31.477 C31.031,31.477 30.949,31.46 30.871,31.425 L28.634,30.418 C28.336,30.284 28.203,29.934 28.337,29.636 C28.471,29.338 28.822,29.205 29.119,29.34 L31.356,30.347 C31.653,30.481 31.786,30.831 31.652,31.129 C31.554,31.347 31.338,31.477 31.113,31.477 Z" id="Shape"></path>
            <path d="M27.332,36.689 C27.251,36.689 27.169,36.672 27.09,36.637 L25.689,36.006 C25.391,35.872 25.259,35.522 25.393,35.224 C25.527,34.926 25.877,34.793 26.175,34.927 L27.576,35.557 C27.874,35.691 28.007,36.041 27.872,36.339 C27.773,36.56 27.558,36.689 27.332,36.689 Z" id="Shape"></path>
            <path d="M21.892,19.912 C21.892,19.912 21.891,19.912 21.891,19.912 L20.326,19.909 C19.999,19.908 19.735,19.642 19.736,19.316 C19.737,18.99 20.002,18.726 20.327,18.726 C20.327,18.726 20.327,18.726 20.328,18.726 L21.893,18.729 C22.219,18.729 22.483,18.995 22.483,19.321 C22.482,19.647 22.218,19.912 21.892,19.912 Z" id="Shape"></path>
            <path d="M21.892,21.686 C21.892,21.686 21.891,21.686 21.891,21.686 L20.326,21.683 C19.999,21.683 19.735,21.416 19.736,21.09 C19.737,20.764 20.002,20.5 20.327,20.5 C20.327,20.5 20.327,20.5 20.328,20.5 L21.893,20.503 C22.219,20.503 22.483,20.769 22.483,21.095 C22.482,21.422 22.218,21.686 21.892,21.686 Z" id="Shape"></path>
            <path d="M10.975,13.51 C10.975,13.51 10.974,13.51 10.974,13.51 L8.618,13.504 C8.291,13.503 8.027,13.238 8.028,12.911 C8.029,12.585 8.294,12.321 8.62,12.321 L8.621,12.321 L10.977,12.326 C11.303,12.327 11.567,12.593 11.566,12.919 C11.565,13.246 11.3,13.51 10.975,13.51 Z" id="Shape"></path>
            <path d="M11.007,15.341 C11.007,15.341 11.007,15.341 11.007,15.341 L8.533,15.337 C8.207,15.337 7.943,15.071 7.943,14.744 C7.944,14.418 8.209,14.154 8.535,14.154 C8.535,14.154 8.535,14.154 8.536,14.154 L11.009,14.158 C11.335,14.159 11.6,14.424 11.599,14.751 C11.598,15.077 11.333,15.341 11.007,15.341 Z" id="Shape"></path>
            <path d="M9.46,21.074 C9.46,21.074 9.459,21.074 9.458,21.074 L8.667,21.071 C8.34,21.069 8.077,20.803 8.078,20.477 C8.079,20.151 8.344,19.888 8.669,19.888 C8.67,19.888 8.671,19.888 8.671,19.888 L9.462,19.892 C9.789,19.893 10.053,20.159 10.051,20.486 C10.051,20.811 9.786,21.074 9.46,21.074 Z" id="Shape"></path>
            <path d="M11.01,22.848 C11.01,22.848 11.009,22.848 11.01,22.848 L8.669,22.844 C8.342,22.844 8.078,22.578 8.079,22.252 C8.079,21.926 8.344,21.662 8.67,21.662 C8.67,21.662 8.671,21.662 8.671,21.662 L11.011,21.665 C11.338,21.666 11.602,21.931 11.601,22.258 C11.601,22.583 11.336,22.848 11.01,22.848 Z" id="Shape"></path>
            <path d="M4.758,21.074 L2.417,21.071 C2.091,21.07 1.826,20.805 1.827,20.478 C1.827,20.152 2.092,19.887 2.419,19.887 C2.419,19.887 2.419,19.887 2.419,19.887 L4.759,19.891 C5.085,19.891 5.35,20.157 5.349,20.483 C5.35,20.809 5.084,21.074 4.758,21.074 Z" id="Shape"></path>
            <path d="M3.984,22.848 L2.418,22.844 C2.091,22.844 1.827,22.578 1.828,22.252 C1.829,21.925 2.094,21.662 2.42,21.662 L2.421,21.662 L3.986,21.665 C4.312,21.666 4.577,21.932 4.576,22.258 C4.575,22.583 4.31,22.848 3.984,22.848 Z" id="Shape"></path>
            <path d="M15.851,10.024 C15.85,10.024 15.85,10.024 15.849,10.024 L14.655,10.018 C14.328,10.017 14.065,9.75 14.066,9.424 C14.067,9.098 14.332,8.835 14.658,8.835 C14.659,8.835 14.659,8.835 14.66,8.835 L15.854,8.84 C16.181,8.842 16.444,9.108 16.443,9.434 C16.44,9.761 16.176,10.024 15.851,10.024 Z" id="Shape"></path>
            <path d="M16.271,11.855 C16.271,11.855 16.27,11.855 16.27,11.855 L14.572,11.851 C14.245,11.85 13.981,11.584 13.982,11.258 C13.983,10.932 14.247,10.668 14.573,10.668 C14.573,10.668 14.574,10.668 14.574,10.668 L16.272,10.672 C16.599,10.673 16.862,10.939 16.862,11.265 C16.862,11.591 16.598,11.855 16.271,11.855 Z" id="Shape"></path>
            <path d="M17.436,17.587 L14.708,17.584 C14.381,17.584 14.117,17.318 14.118,16.991 C14.118,16.665 14.383,16.4 14.709,16.4 L17.437,16.403 C17.764,16.403 18.028,16.669 18.027,16.995 C18.027,17.323 17.762,17.587 17.436,17.587 Z" id="Shape"></path>
            <path d="M16.273,19.362 C16.273,19.362 16.273,19.362 16.273,19.362 L14.707,19.359 C14.38,19.359 14.116,19.093 14.117,18.766 C14.117,18.44 14.382,18.176 14.708,18.176 C14.708,18.176 14.708,18.176 14.709,18.176 L16.274,18.179 C16.601,18.179 16.865,18.445 16.864,18.772 C16.864,19.098 16.6,19.362 16.273,19.362 Z" id="Shape"></path>
            <path d="M2.144,31.927 C1.823,31.927 1.563,31.667 1.563,31.346 L1.563,15.919 C1.563,15.598 1.823,15.338 2.144,15.338 C2.465,15.338 2.725,15.598 2.725,15.919 L2.725,31.346 C2.725,31.667 2.465,31.927 2.144,31.927 Z" id="Shape"></path>
            <path d="M8.147,29.216 C7.826,29.216 7.566,28.956 7.566,28.635 L7.566,7.983 C7.566,7.662 7.826,7.402 8.147,7.402 C8.468,7.402 8.728,7.662 8.728,7.983 L8.728,28.634 C8.729,28.956 8.468,29.216 8.147,29.216 Z" id="Shape"></path>
            <path d="M14.151,29.216 C13.83,29.216 13.57,28.956 13.57,28.635 L13.57,3.723 C13.57,3.402 13.83,3.142 14.151,3.142 C14.472,3.142 14.732,3.402 14.732,3.723 L14.732,28.635 C14.732,28.956 14.472,29.216 14.151,29.216 Z" id="Shape"></path>
            <path d="M20.155,29.216 C19.834,29.216 19.574,28.956 19.574,28.635 L19.574,3.715 C19.574,3.394 19.834,3.134 20.155,3.134 C20.476,3.134 20.736,3.394 20.736,3.715 L20.736,28.634 C20.736,28.956 20.476,29.216 20.155,29.216 Z" id="Shape"></path>
            <path d="M33.446,26.346 C31.867,25.547 29.932,26.181 29.131,27.763 L25.544,34.922 C23.897,35.174 16.737,36.698 15.271,44.229 C15.209,44.55 15.418,44.86 15.739,44.923 C15.777,44.93 15.815,44.934 15.852,44.934 C16.13,44.934 16.377,44.738 16.433,44.455 C17.911,36.861 25.656,36.086 25.985,36.057 C26.189,36.039 26.37,35.916 26.462,35.732 L30.189,28.294 C30.694,27.297 31.917,26.896 32.914,27.401 C33.912,27.905 34.313,29.128 33.807,30.127 L25.635,46.185 C25.486,46.476 25.599,46.832 25.89,46.982 C25.976,47.026 26.069,47.047 26.161,47.047 C26.375,47.047 26.582,46.93 26.687,46.727 L34.864,30.659 C35.66,29.081 35.025,27.145 33.446,26.346 Z" id="Shape"></path>
        </g>
    </g>
</svg>