<?xml version="1.0" encoding="UTF-8"?>
<svg   viewBox="0 0 42 72" version="1.1" xmlns="http://www.w3.org/2000/svg" xmlns:xlink="http://www.w3.org/1999/xlink">
    <!-- Generator: Sketch 51.3 (57544) - http://www.bohemiancoding.com/sketch -->
    <title>hand-cards</title>
    <desc>Created with Sketch.</desc>
    <defs></defs>
    <g id="hand-cards"   fill-rule="evenodd">
        <g id="noun_play_193163"   fill-rule="nonzero">
            <path d="M38.587,10.405 C38.261,10.405 37.996,10.14 37.996,9.814 C37.994,8.54 36.998,7.484 35.727,7.41 C35.401,7.391 35.152,7.111 35.171,6.785 C35.19,6.459 35.466,6.206 35.796,6.229 C37.69,6.339 39.175,7.913 39.178,9.812 C39.179,10.139 38.915,10.405 38.587,10.405 Z" id="Shape"></path>
            <path d="M34.296,41.226 C33.993,41.226 33.734,40.994 33.707,40.687 C33.528,38.667 32.065,38.247 32.003,38.23 C31.69,38.145 31.501,37.823 31.583,37.509 C31.665,37.196 31.982,37.005 32.296,37.084 C32.391,37.107 34.629,37.701 34.885,40.582 C34.914,40.907 34.674,41.194 34.348,41.223 C34.332,41.226 34.313,41.226 34.296,41.226 Z" id="Shape"></path>
            <path d="M39.178,9.814 C39.178,9.487 38.913,9.222 38.587,9.222 C38.261,9.222 37.996,9.487 37.996,9.814 L37.996,71.408 C37.996,71.735 38.261,72 38.587,72 C38.914,72 39.178,71.735 39.178,71.408 L39.178,9.814 Z" id="Shape"></path>
            <path d="M20.384,72 C20.057,72 19.792,71.735 19.792,71.408 L19.792,60.336 C19.792,60.009 20.057,59.745 20.384,59.745 C20.71,59.745 20.975,60.01 20.975,60.336 L20.975,71.408 C20.976,71.735 20.71,72 20.384,72 Z" id="Shape"></path>
            <path d="M23.355,63.333 L20.384,63.333 C20.057,63.333 19.792,63.068 19.792,62.741 C19.792,62.414 20.057,62.15 20.384,62.15 L23.355,62.15 C23.682,62.15 23.947,62.415 23.947,62.741 C23.947,63.068 23.682,63.333 23.355,63.333 Z" id="Shape"></path>
            <path d="M36.368,59.86 C36.147,59.86 35.936,59.736 35.834,59.524 C35.693,59.23 35.818,58.877 36.112,58.735 C40.145,56.807 40.354,55.686 40.322,55.388 C40.255,54.763 39.008,54.261 38.45,54.129 C38.132,54.054 37.935,53.734 38.011,53.417 C38.087,53.1 38.407,52.902 38.723,52.979 C38.989,53.042 41.325,53.644 41.498,55.264 C41.651,56.698 40.101,58.14 36.622,59.804 C36.541,59.842 36.454,59.86 36.368,59.86 Z" id="Shape"></path>
            <path d="M36.368,64.278 C36.147,64.278 35.936,64.154 35.834,63.942 C35.693,63.648 35.818,63.295 36.112,63.153 C40.143,61.226 40.354,60.105 40.322,59.807 C40.256,59.18 39.031,58.687 38.448,58.546 C38.131,58.47 37.935,58.15 38.011,57.833 C38.087,57.516 38.404,57.32 38.722,57.395 C38.988,57.458 41.324,58.059 41.497,59.68 C41.65,61.114 40.101,62.556 36.621,64.221 C36.541,64.26 36.454,64.278 36.368,64.278 Z" id="Shape"></path>
            <path d="M36.368,68.917 C36.147,68.917 35.936,68.792 35.834,68.58 C35.693,68.286 35.818,67.933 36.112,67.791 C40.145,65.863 40.354,64.742 40.322,64.444 C40.255,63.819 39.008,63.317 38.45,63.184 C38.132,63.109 37.935,62.79 38.011,62.472 C38.087,62.155 38.407,61.958 38.723,62.034 C38.989,62.097 41.325,62.698 41.498,64.319 C41.651,65.752 40.101,67.194 36.622,68.858 C36.541,68.897 36.454,68.917 36.368,68.917 Z" id="Shape"></path>
            <path d="M35.965,3.388 C35.965,1.78 34.657,0.472 33.049,0.472 L12.453,0.472 C10.845,0.472 9.537,1.78 9.537,3.388 L9.537,3.654 L7.029,4.096 C5.446,4.375 4.385,5.89 4.664,7.473 L4.78,8.132 L2.386,9.003 C1.656,9.269 1.075,9.805 0.752,10.511 C0.429,11.219 0.403,12.009 0.681,12.735 L9.575,36.038 C9.61,36.128 9.668,36.2 9.735,36.261 C10.158,37.35 11.214,38.126 12.452,38.126 L25.23,38.126 C25.557,38.126 25.821,37.862 25.821,37.535 C25.821,37.208 25.556,36.944 25.23,36.944 L12.453,36.944 C11.497,36.944 10.72,36.167 10.72,35.212 L10.72,3.388 C10.72,2.432 11.497,1.656 12.453,1.656 L33.05,1.656 C34.005,1.656 34.782,2.433 34.782,3.388 L34.782,35.212 C34.782,36.168 34.005,36.944 33.05,36.944 L32.001,36.944 L33.05,38.127 C34.657,38.127 35.966,36.819 35.966,35.212 L35.965,3.388 Z M7.235,5.261 L9.537,4.855 L9.537,28.293 L5.83,7.268 C5.664,6.328 6.295,5.427 7.235,5.261 Z M1.83,11.004 C2.02,10.587 2.362,10.272 2.793,10.115 L4.99,9.315 L8.723,30.484 L1.788,12.314 C1.625,11.886 1.639,11.42 1.83,11.004 Z" id="Shape"></path>
            <path d="M21.359,55.253 C21.114,55.253 20.885,55.1 20.8,54.855 C17.383,44.998 23.655,39.869 25.507,38.611 L21.949,31.691 C21.146,30.111 21.777,28.174 23.354,27.372 C24.931,26.57 26.868,27.2 27.671,28.777 L32.664,37.361 C32.829,37.643 32.733,38.006 32.45,38.17 C32.168,38.333 31.805,38.238 31.642,37.956 L26.633,29.344 C26.11,28.319 24.886,27.921 23.89,28.428 C22.894,28.935 22.495,30.158 23.002,31.154 L26.805,38.552 C26.952,38.838 26.844,39.189 26.56,39.343 C26.222,39.528 18.29,44.006 21.917,54.469 C22.024,54.778 21.861,55.115 21.552,55.221 C21.489,55.243 21.423,55.253 21.359,55.253 Z" id="Shape"></path>
            <path d="M25.075,31.238 C24.862,31.238 24.658,31.122 24.552,30.923 C23.24,28.449 24.656,27.335 24.718,27.288 C24.978,27.091 25.349,27.142 25.546,27.402 C25.74,27.658 25.694,28.022 25.444,28.221 C25.403,28.258 24.918,28.726 25.38,29.899 L26.795,29.367 C27.101,29.25 27.441,29.406 27.557,29.712 C27.672,30.018 27.517,30.358 27.212,30.474 L25.283,31.2 C25.214,31.226 25.144,31.238 25.075,31.238 Z" id="Shape"></path>
            <path d="M25.881,60.929 L20.6,60.929 C20.451,60.929 20.307,60.872 20.197,60.77 C10.638,51.876 13.11,40.659 14.094,37.433 C14.19,37.121 14.52,36.945 14.833,37.041 C15.145,37.136 15.321,37.467 15.226,37.779 C14.297,40.82 11.976,51.345 20.833,59.745 L25.88,59.745 C26.207,59.745 26.472,60.01 26.472,60.336 C26.473,60.664 26.208,60.929 25.881,60.929 Z" id="Shape"></path>
            <path d="M26.586,27.969 C26.375,27.969 26.18,27.856 26.074,27.674 L24.022,24.137 C23.913,23.949 23.916,23.718 24.028,23.532 L26.08,20.165 C26.187,19.989 26.379,19.881 26.585,19.881 C26.792,19.881 26.983,19.989 27.09,20.165 L29.142,23.532 C29.255,23.718 29.258,23.949 29.149,24.137 L27.097,27.674 C26.992,27.856 26.797,27.969 26.586,27.969 Z M25.222,23.848 L26.586,26.198 L27.95,23.848 L26.586,21.61 L25.222,23.848 Z" id="Shape"></path>
            <path d="M19.251,18.288 C19.063,18.288 18.887,18.199 18.776,18.049 L15.832,14.079 C15.563,13.693 15.426,13.258 15.426,12.805 C15.426,11.587 16.417,10.597 17.634,10.597 C18.272,10.597 18.847,10.863 19.25,11.296 C19.653,10.863 20.228,10.597 20.867,10.597 C22.085,10.597 23.075,11.588 23.075,12.805 C23.075,13.204 22.969,13.59 22.765,13.931 C22.746,13.984 22.72,14.035 22.685,14.081 L19.723,18.051 C19.614,18.2 19.438,18.288 19.251,18.288 Z M17.635,11.779 C17.07,11.779 16.61,12.238 16.61,12.804 C16.61,13.013 16.673,13.216 16.794,13.388 L19.254,16.705 L21.657,13.483 C21.672,13.45 21.69,13.418 21.711,13.388 C21.831,13.215 21.895,13.013 21.895,12.804 C21.895,12.239 21.435,11.779 20.869,11.779 C20.343,11.779 19.895,12.189 19.849,12.711 C19.822,13.017 19.567,13.251 19.26,13.251 C18.953,13.251 18.683,13.017 18.656,12.711 C18.609,12.188 18.161,11.779 17.635,11.779 Z" id="Shape"></path>
            <path d="M29.7,14.394 L27.06,10.835 C26.949,10.685 26.773,10.596 26.586,10.595 L26.585,10.595 C26.398,10.595 26.223,10.683 26.111,10.833 L23.456,14.392 C23.422,14.437 23.396,14.486 23.378,14.537 C23.192,14.85 23.095,15.206 23.095,15.572 C23.095,16.697 24.011,17.613 25.136,17.613 C25.444,17.613 25.732,17.542 25.994,17.422 L25.994,18.127 C25.994,18.454 26.259,18.718 26.585,18.718 C26.911,18.718 27.176,18.453 27.176,18.127 L27.176,17.422 C27.438,17.542 27.726,17.613 28.034,17.613 C29.159,17.613 30.075,16.697 30.075,15.572 C30.076,15.155 29.95,14.752 29.7,14.394 Z M28.035,16.431 C27.595,16.431 27.22,16.088 27.181,15.651 C27.154,15.346 26.885,15.111 26.578,15.111 C26.271,15.111 26.016,15.346 25.989,15.651 C25.95,16.089 25.576,16.431 25.136,16.431 C24.662,16.431 24.278,16.046 24.278,15.573 C24.278,15.398 24.331,15.229 24.432,15.086 C24.452,15.057 24.469,15.027 24.483,14.996 L26.584,12.179 L28.739,15.086 C28.84,15.23 28.893,15.398 28.893,15.573 C28.893,16.045 28.508,16.431 28.035,16.431 Z" id="Shape"></path>
            <path d="M21.409,22.563 C21.443,22.409 21.46,22.251 21.46,22.089 C21.46,20.871 20.469,19.881 19.252,19.881 C18.035,19.881 17.044,20.872 17.044,22.089 C17.044,22.25 17.062,22.409 17.095,22.563 C16.212,22.852 15.572,23.684 15.572,24.662 C15.572,25.88 16.563,26.87 17.78,26.87 C18.09,26.87 18.387,26.799 18.661,26.679 L18.661,27.412 C18.661,27.739 18.926,28.003 19.252,28.003 C19.579,28.003 19.843,27.738 19.843,27.412 L19.843,26.678 C20.117,26.799 20.414,26.87 20.724,26.87 C21.941,26.87 22.932,25.88 22.932,24.662 C22.932,23.684 22.292,22.852 21.409,22.563 Z M20.724,25.688 C20.323,25.688 19.956,25.451 19.79,25.085 C19.787,25.078 19.778,25.075 19.775,25.067 C19.733,24.984 19.672,24.917 19.598,24.862 C19.578,24.846 19.56,24.834 19.537,24.821 C19.451,24.772 19.357,24.737 19.25,24.737 C19.144,24.737 19.049,24.773 18.963,24.821 C18.941,24.834 18.923,24.846 18.902,24.862 C18.828,24.918 18.766,24.986 18.724,25.069 C18.721,25.075 18.713,25.078 18.71,25.085 C18.544,25.451 18.178,25.688 17.776,25.688 C17.211,25.688 16.751,25.229 16.751,24.663 C16.751,24.097 17.211,23.638 17.776,23.638 C17.816,23.638 17.855,23.641 17.894,23.645 C18.127,23.671 18.354,23.553 18.47,23.349 C18.586,23.144 18.57,22.891 18.428,22.703 C18.294,22.525 18.223,22.313 18.223,22.091 C18.223,21.526 18.683,21.066 19.248,21.066 C19.813,21.066 20.273,21.525 20.273,22.091 C20.273,22.313 20.202,22.525 20.068,22.703 C19.927,22.891 19.911,23.145 20.027,23.349 C20.142,23.553 20.367,23.671 20.602,23.645 C20.641,23.642 20.68,23.638 20.72,23.638 C21.285,23.638 21.745,24.097 21.745,24.663 C21.745,25.229 21.289,25.688 20.724,25.688 Z" id="Shape"></path>
            <path d="M29.484,8.679 L16.163,8.679 C15.836,8.679 15.571,8.414 15.571,8.087 C15.571,7.76 15.836,7.495 16.163,7.495 L29.484,7.495 C29.811,7.495 30.076,7.76 30.076,8.087 C30.076,8.414 29.811,8.679 29.484,8.679 Z" id="Shape"></path>
            <path d="M29.484,31.104 L28.405,31.104 C28.078,31.104 27.814,30.839 27.814,30.512 C27.814,30.185 28.079,29.92 28.405,29.92 L29.484,29.92 C29.811,29.92 30.076,30.185 30.076,30.512 C30.076,30.839 29.811,31.104 29.484,31.104 Z" id="Shape"></path>
            <path d="M22.208,31.104 L16.163,31.104 C15.836,31.104 15.571,30.839 15.571,30.512 C15.571,30.185 15.836,29.92 16.163,29.92 L22.208,29.92 C22.535,29.92 22.799,30.185 22.799,30.512 C22.799,30.839 22.535,31.104 22.208,31.104 Z" id="Shape"></path>
        </g>
    </g>
</svg>