<?xml version="1.0" encoding="UTF-8" standalone="no"?>
<svg
   xmlns:dc="http://purl.org/dc/elements/1.1/"
   xmlns:cc="http://creativecommons.org/ns#"
   xmlns:rdf="http://www.w3.org/1999/02/22-rdf-syntax-ns#"
   xmlns:svg="http://www.w3.org/2000/svg"
   xmlns="http://www.w3.org/2000/svg"
   xmlns:sodipodi="http://sodipodi.sourceforge.net/DTD/sodipodi-0.dtd"
   xmlns:inkscape="http://www.inkscape.org/namespaces/inkscape"
   version="1.1"
   x="0px"
   y="0px"
   viewBox="0 0 90 90"
   enable-background="new 0 0 86 100"
   xml:space="preserve"
   id="svg2"
   inkscape:version="0.91 r13725"
   sodipodi:docname="smiley.svg"
   width="90"
   height="90"><metadata
     id="metadata34"><rdf:RDF><cc:Work
         rdf:about=""><dc:format>image/svg+xml</dc:format><dc:type
           rdf:resource="http://purl.org/dc/dcmitype/StillImage" /><dc:title></dc:title></cc:Work></rdf:RDF></metadata><defs
     id="defs32" /><sodipodi:namedview
     pagecolor="#ffffff"
     bordercolor="#666666"
     borderopacity="1"
     objecttolerance="10"
     gridtolerance="10"
     guidetolerance="10"
     inkscape:pageopacity="0"
     inkscape:pageshadow="2"
     inkscape:window-width="1592"
     inkscape:window-height="753"
     id="namedview30"
     showgrid="false"
     fit-margin-top="0"
     fit-margin-left="0"
     fit-margin-right="0"
     fit-margin-bottom="0"
     inkscape:zoom="1.888"
     inkscape:cx="19.979149"
     inkscape:cy="14.513578"
     inkscape:window-x="0"
     inkscape:window-y="0"
     inkscape:window-maximized="0"
     inkscape:current-layer="svg2" /><g
     transform="matrix(1.0033864,0,0,1.0033864,-5.3217104,-4.7560492)"
     id="g4"><g
       id="g6"><path
         style="clip-rule:evenodd;fill-rule:evenodd"
         inkscape:connector-curvature="0"
         d="m 81.86,17.88 c -17.52,-17.52 -45.9,-17.52 -63.42,0 -17.52,17.51 -17.51,45.9 0,63.42 17.52,17.52 45.9,17.51 63.42,0 17.52,-17.52 17.52,-45.91 0,-63.42 z M 52.73,83.12 C 34.21,84.55 18.04,70.68 16.62,52.17 15.19,33.65 29.05,17.48 47.57,16.06 66.1,14.62 82.26,28.49 83.68,47 85.11,65.53 71.24,81.69 52.73,83.12 Z"
         id="path8-6" /></g><g
       id="g10"><path
         inkscape:connector-curvature="0"
         d="m 60.09,57.76 c 0,3.56 -2.83,6.25 -6.59,6.25 -1.37,0 -2.68,-0.39 -3.75,-1.08 -1.06,0.69 -2.36,1.08 -3.8,1.08 -1.63,0 -3.16,-0.54 -4.32,-1.5 -1.39,-1.16 -2.15,-2.84 -2.15,-4.75 0,-1.53 1.24,-2.77 2.77,-2.77 1.53,0 2.77,1.24 2.77,2.77 0,0.23 0,0.71 0.93,0.71 0.24,0 1.05,-0.05 1.05,-0.71 0,-1.43 1.09,-2.61 2.49,-2.76 0.11,0 0.21,-0.01 0.32,-0.01 0.08,0 0.16,0 0.24,0.01 1.42,0.12 2.53,1.31 2.53,2.76 0,0.23 0,0.71 0.92,0.71 0.25,0 1.05,-0.05 1.05,-0.71 0,-1.53 1.24,-2.77 2.77,-2.77 1.53,0 2.77,1.24 2.77,2.77 z"
         id="path12-4" /></g><g
       id="g14"><path
         inkscape:connector-curvature="0"
         d="m 62.323,52.625 c -1.524,0 -2.762,-1.23 -2.771,-2.754 -0.01,-1.531 1.223,-2.779 2.754,-2.788 l 7.682,-0.046 c 0.007,0 0.012,0 0.017,0 1.524,0 2.762,1.23 2.771,2.754 0.01,1.531 -1.223,2.779 -2.754,2.788 l -7.682,0.046 c -0.006,0 -0.012,0 -0.017,0 z"
         id="path16-9" /></g><g
       id="g18"><path
         inkscape:connector-curvature="0"
         d="m 27.959,52.625 c -1.524,0 -2.762,-1.23 -2.771,-2.754 -0.01,-1.531 1.223,-2.779 2.754,-2.788 l 7.682,-0.046 c 0.007,0 0.012,0 0.017,0 1.524,0 2.762,1.23 2.771,2.754 0.01,1.531 -1.223,2.779 -2.754,2.788 l -7.682,0.046 c -0.006,0 -0.011,0 -0.017,0 z"
         id="path20-2" /></g></g></svg>